<?xml version="1.0" encoding="utf-8"?>
<!-- Generator: Adobe Illustrator 17.0.0, SVG Export Plug-In . SVG Version: 6.00 Build 0)  -->
<!DOCTYPE svg PUBLIC "-//W3C//DTD SVG 1.1//EN" "http://www.w3.org/Graphics/SVG/1.1/DTD/svg11.dtd">
<svg version="1.1" id="logo" xmlns="http://www.w3.org/2000/svg" xmlns:xlink="http://www.w3.org/1999/xlink" x="0px" y="0px"
	 width="191px" height="38px" viewBox="0 0 191 38" style="enable-background:new 0 0 191 38;" xml:space="preserve">
<style type="text/css">
	.st0{fill:#FDC305;}
	.st1{fill:#F06351;}
	.st2{fill:#111111;}
</style>
<g>
	<path class="st0" d="M6.064,20.574l0.099-2.286c6.66-0.895,13.32-1.392,20.08-1.292c0,0.596,0,1.193-0.099,1.789
		c0,0,2.883-1.292,5.964-1.789C29.722,10.734,23.659,6.26,16.601,6.26c-8.251,0-15.109,6.064-16.402,14.016
		C2.386,20.376,6.064,20.574,6.064,20.574z"/>
	<path class="st0" d="M27.038,24.054c-1.193,1.292-1.392,1.193-1.392,3.479c0,0.895,0,4.871,0,9.145
		c4.473-2.982,7.356-8.052,7.356-13.817c0-1.093-0.099-2.087-0.298-3.082C31.014,20.873,28.032,22.96,27.038,24.054z"/>
	<path class="st0" d="M6.362,25.545c0,0-3.777-1.392-5.169-1.789C0.795,23.657,0.398,23.557,0,23.458
		c0.199,5.964,3.678,11.233,8.648,13.917L6.362,25.545z"/>
</g>
<path class="st1" d="M26.143,16.996c0.099-8.449-1.392-16.402-1.392-16.402s-0.199-1.193-0.895-0.199
	c-0.696,1.093-1.193,3.877-1.193,3.877C15.308,3.875,9.94,4.57,9.94,4.57C9.145,1.986,7.853,0.793,7.157,0.992
	c-0.696,0.298-0.696,3.38-0.696,3.38L6.064,18.388C12.724,17.394,19.483,16.996,26.143,16.996z"/>
<path d="M12.326,13.914c0-0.099,0.994,0.696,1.392,0.895s0.596,0.398,0.596,0.596c0,0.199-0.298,0.298-0.596,0.298
	c-0.298,0-0.895-0.099-0.994-0.298c0,0,0.596,0,0.895,0h0.298C14.016,15.505,12.624,14.411,12.326,13.914z"/>
<path d="M19.781,14.014c0,0-0.994,1.292-1.093,1.292c0,0.099-0.199,0.298,0.199,0.298c0.398,0,1.093-0.199,1.193-0.298
	c0.099-0.099,0.099-0.199-0.099-0.199c-0.199,0-0.696,0-0.994,0.099L19.781,14.014C19.781,14.014,19.881,13.914,19.781,14.014z"/>
<path d="M16.7,20.077c0,0,0.795-0.398,1.093-0.994c0.298-0.696,0-0.895-0.398-0.994c-0.497-0.099-1.292,0-1.69,0.298
	c-0.398,0.398-0.298,0.696-0.099,0.994C15.805,19.58,16.402,19.978,16.7,20.077z"/>
<path class="st1" d="M16.203,21.37c0,0-0.199,0.398-0.497,0.596c-0.199,0.199-0.596,0.398-0.994,0.398
	c-0.596,0-1.093-0.199-1.491-0.398c-0.199-0.099-0.398-0.298-0.497-0.398c-0.199-0.199-0.398-0.298-0.398-0.298
	s0.696,4.076,2.584,4.672c1.789,0.596,2.087-0.696,2.187-1.093c0-0.298,0-2.087-0.795-3.181
	C16.402,21.27,16.302,21.469,16.203,21.37z"/>
<g>
	<path d="M14.612,22.463L14.612,22.463c-1.292,0-2.286-1.392-2.286-1.392c0-0.099,0-0.199,0-0.199c0.099,0,0.199,0,0.199,0
		s0.994,1.292,2.087,1.292l0,0c0.596,0,1.093-0.298,1.59-0.994l0.099-0.199L16.4,21.17c0,0,0.398,0.795,0.994,0.795
		c0.497,0,1.093-0.398,1.59-1.292c0-0.099,0.099-0.099,0.199,0c0.099,0,0.099,0.099,0,0.199c-0.596,0.994-1.292,1.392-1.889,1.392
		c-0.596,0-0.895-0.497-1.093-0.795C15.805,22.165,15.209,22.463,14.612,22.463z"/>
</g>
<path class="st1" d="M26.044,18.785c0,0-2.485,2.187-5.07,5.169s-5.169,4.871-5.169,4.871c-0.199-0.497-1.59-1.491-1.59-1.491
	s-3.082-2.087-5.169-3.777c-1.193-0.994-2.286-2.187-3.082-2.982c-0.298,0-1.093-0.099-1.988-0.099
	c4.672,6.958,11.928,8.748,11.928,8.748c0.895-0.099,3.28-1.889,5.07-3.28c1.789-1.392,4.771-4.473,5.865-5.865
	c0.596-0.696,0.895-1.392,1.093-1.988C26.839,18.487,26.044,18.785,26.044,18.785z"/>
<g>
	<path class="st2" d="M91.236,29.529c-0.791-1.028-1.265-2.529-1.265-4.427V18.54c0-1.976,0.395-3.478,1.186-4.506
		c0.87-1.028,2.213-1.502,4.19-1.502c1.897,0,3.241,0.474,4.032,1.344s1.186,2.213,1.186,3.874v1.58h-3.874v-1.818
		c0-0.712-0.079-1.265-0.237-1.581s-0.474-0.633-1.107-0.633c-0.554,0-0.949,0.158-1.107,0.554
		c-0.158,0.395-0.237,1.028-0.237,1.739v8.459c0,0.712,0.079,1.265,0.316,1.66c0.158,0.395,0.554,0.554,1.107,0.554
		c0.553,0,0.87-0.158,1.028-0.554c0.158-0.396,0.237-0.949,0.237-1.66v-1.897h3.874v1.581c0,1.66-0.395,3.004-1.186,3.953
		c-0.791,0.949-2.134,1.423-4.032,1.423C93.45,31.03,92.027,30.556,91.236,29.529z"/>
	<path class="st2" d="M105.229,12.769h4.506l3.32,18.023h-3.636l-0.633-3.794h-2.608l-0.633,3.794h-3.715L105.229,12.769z
		 M108.47,24.627l-0.949-7.035l-0.949,7.035H108.47z"/>
	<path class="st2" d="M115.822,15.773h-2.687v-3.004h9.408v2.925h-2.687v15.099h-4.033V15.773z"/>
	<path class="st2" d="M129.735,12.769h6.956v1.897h-4.506v5.929h3.636v1.818h-3.636v6.64h4.506v1.818h-7.035V12.769H129.735z"/>
	<path class="st2" d="M138.747,12.769h1.739l5.139,11.937V12.769h2.055v18.023H146.1l-5.218-12.331v12.332h-2.134V12.769z"/>
	<path class="st2" d="M150.051,12.769h6.956v1.897h-4.506v5.929h3.636v1.818h-3.636v6.64h4.506v1.818h-6.956V12.769z"/>
	<path class="st2" d="M159.063,12.769h3.636c1.818,0,3.162,0.395,4.032,1.107c0.87,0.712,1.265,1.976,1.265,3.636
		c0,2.292-0.712,3.715-2.213,4.19l2.529,9.012h-2.45l-2.371-8.459h-1.976v8.459h-2.529V12.769H159.063z M162.542,20.517
		c1.107,0,1.818-0.237,2.292-0.633c0.474-0.395,0.712-1.186,0.712-2.371c0-0.712-0.079-1.344-0.237-1.739
		c-0.158-0.395-0.474-0.712-0.87-0.949c-0.395-0.237-1.028-0.316-1.739-0.316h-1.107v5.929h0.949
		C162.542,20.437,162.542,20.517,162.542,20.517z"/>
	<path class="st2" d="M171.158,29.45c-0.712-1.028-1.107-2.529-1.107-4.585v-6.008c0-1.423,0.158-2.529,0.395-3.399
		c0.316-0.87,0.791-1.581,1.502-2.055c0.712-0.474,1.66-0.712,2.925-0.712c1.66,0,2.846,0.395,3.557,1.265
		c0.712,0.87,1.107,2.134,1.107,3.953v0.633h-2.371v-0.554c0-0.87-0.079-1.502-0.158-1.976c-0.079-0.474-0.316-0.791-0.633-1.028
		c-0.317-0.237-0.791-0.395-1.502-0.395s-1.186,0.158-1.581,0.474s-0.554,0.712-0.633,1.265c-0.079,0.554-0.158,1.265-0.158,2.134
		v6.719c0,1.344,0.158,2.371,0.474,3.004c0.316,0.633,0.949,0.87,1.897,0.87s1.581-0.316,1.897-0.949s0.554-1.66,0.554-3.162v-1.265
		h-2.292V21.86h4.585v8.933h-1.581l-0.237-2.055c-0.554,1.502-1.66,2.292-3.241,2.292C173.056,31.03,171.87,30.477,171.158,29.45z"
		/>
	<path class="st2" d="M184.676,24.469l-3.874-11.621h2.371l2.767,8.696l2.687-8.696H191l-3.874,11.621v6.324h-2.371v-6.324H184.676z
		"/>
</g>
</svg>
