<svg id="Слой_1" xmlns="http://www.w3.org/2000/svg" xmlns:xlink="http://www.w3.org/1999/xlink" width="172.264" height="57.07" viewBox="0 0 172.264 57.07"><style>.st0{fill:#fdc305}.st0,.st1{clip-path:url(#SVGID_2_)}.st1{fill:#f06351}.st2{fill:#e55645}.st2,.st3{clip-path:url(#SVGID_2_)}.st4{fill:#111}.st4,.st5{clip-path:url(#SVGID_2_)}.st5{fill:#444}</style><defs><path id="SVGID_1_" d="M0 0h172.264v57.07H0z"/></defs><clipPath id="SVGID_2_"><use xlink:href="#SVGID_1_" overflow="visible"/></clipPath><path class="st0" d="M59.625 21.74C54.195 8.745 39.263 2.612 26.27 8.04 13.277 13.47 7.145 28.402 12.573 41.396c3.57 8.547 11.254 14.125 19.793 15.397a121.472 121.472 0 0 1-1.684-6.826c1.492.988 3.075 1.797 4.748 2.544-.006.004-.013.008-.02.01 0 0 .118 2.148.278 4.547 1.766.03 3.55-.126 5.324-.476-.042-.156-.043-.402.012-.758.285-1.854 1.087-5.213 1.243-7.375a15.21 15.21 0 0 0 2.887-3.697c0 .012-.002.024-.004.037l-.054.43c-.552 4.247-1.697 8.776-2.393 10.03a5.756 5.756 0 0 1-.826 1.147 25.534 25.534 0 0 0 4.05-1.31c12.993-5.43 19.126-20.362 13.698-33.355m-1.472 3.768c-.432.432-1.344.72-1.488-.576-.143-1.295-.192-2.207-.192-2.207s-1.92-3.406-2.638-3.454c-.72-.047-5.806 3.455-7.15 4.943-1.16 1.283-1.39 1.2-1.39 3.454 0 1.706.218 8.132.097 13.05 0 0-2.16.577-8.11 2.16-5.95 1.584-7.774 1.776-7.774 1.776L28.5 38.847H28.5a1.03 1.03 0 0 0-.04-.007l-.036-.005-.05-.007L25.815 25.7s-3.79-1.44-5.182-1.823c-1.392-.384-2.255-.672-4.03.624-1.776 1.296-1.728 3.84-1.728 3.84s.432.96.48 1.44c.048.478-1.2.43-2.015.43-.817 0-.913-1.44-.29-3.12.624-1.678 1.92-3.693 1.92-3.693s1.2-2.255 2.063-2.88c0 0 .144-.335 1.248-.24 1.104.097 7.246.433 7.246.433l.053-2.265a143.65 143.65 0 0 1 20.156-1.33c-.01.605-.03 1.212-.058 1.82 0 0 4.366-2.015 8.11-1.968 0 0 .43-.047.766.384.336.433 2.4 2.976 2.64 3.36.24.384 1.2 1.727 1.822 3.023 0 0-.43 1.343-.863 1.775"/><path class="st1" d="M56.21 19.427c.472.595.883 1.124.982 1.283.24.384 1.2 1.727 1.824 3.023 0 0-.432 1.343-.864 1.775-.432.432-1.343.72-1.487-.576-.144-1.296-.192-2.207-.192-2.207s-1.92-3.407-2.64-3.455c-.72-.048-5.805 3.455-7.148 4.942-1.16 1.284-1.392 1.2-1.392 3.455 0 1.495.17 6.62.13 11.177 1.8.208 4.446.707 5.244 1.874 0 0-.288-7.15 7.773-3.407 0 0 .288-9.74 11.42-7.244 0 0-5.644-6.93-13.65-10.64M45.735 17.115c.145-8.477-1.4-16.46-1.4-16.46s-.145-1.296-.865-.24c-.72 1.055-1.2 3.934-1.2 3.934-7.436-.433-12.762.334-12.762.334C28.692 1.95 27.3.75 26.628 1.038c-.67.288-.72 3.31-.72 3.31l-.33 14.097a143.645 143.645 0 0 1 20.157-1.33"/><path class="st2" d="M45.154 44.76c.126-1.06.2-2.475.238-4.042l-8.11 2.16c-5.95 1.582-7.774 1.774-7.774 1.774l1.104 4.99.07.325c1.492.987 3.075 1.797 4.748 2.544 4.354-2.154 6.84-4.116 6.84-4.116l-.003.062a15.205 15.205 0 0 0 2.887-3.696"/><path class="st3" d="M31.86 13.993c-.047-.09 1.02.68 1.404.92.384.24.61.423.61.59s-.264.337-.624.337-.912-.12-.96-.264c0 0 .6-.024.936-.024h.288s-1.39-1.03-1.655-1.56M39.33 14.106s-1.047 1.273-1.086 1.332c-.04.06-.166.34.185.293.35-.048 1.11-.224 1.216-.282.108-.06.07-.196-.116-.175-.205.02-.682.048-.985.106l.84-1.26s.027-.12-.056-.014M36.198 20.194s.81-.35 1.09-1.007c.278-.657.035-.912-.442-.978-.477-.067-1.34-.03-1.736.338-.396.37-.342.73-.054.954.288.224.845.602 1.142.692"/><path class="st1" d="M35.793 21.445s-.18.372-.458.594a1.727 1.727 0 0 1-1.017.385c-.638.033-1.055-.17-1.45-.445-.204-.14-.396-.254-.533-.442a.95.95 0 0 0-.356-.252s.746 4.097 2.563 4.745c1.817.648 2.143-.748 2.2-1.132.048-.326 0-2.08-.82-3.222-.015-.303-.03-.1-.13-.23"/><path class="st3" d="M34.153 22.577h-.016c-1.292-.01-2.29-1.36-2.332-1.418a.144.144 0 0 1 .233-.17c.01.013.956 1.29 2.103 1.3h.013c.584 0 1.13-.334 1.627-.99l.142-.19.103.214c.003.007.372.755.987.794.497.03 1.053-.41 1.616-1.278a.144.144 0 0 1 .24.157c-.632.974-1.263 1.447-1.875 1.408-.563-.036-.942-.495-1.117-.764-.52.623-1.098.937-1.723.937"/><path class="st4" d="M41.054 29.214l-3.12 1.304 1.145-5.612-7.47 9.72 3.12-1.303-1.145 5.612 7.47-9.72zm-7.356 3.807l4.113-5.384-.802 4.002 1.958-.818-4.113 5.385.803-4.002-1.958.818z"/><path class="st1" d="M45.678 18.916s-2.543 2.244-5.062 5.19c-2.52 2.944-5.29 4.873-5.29 4.873-.216-.527-1.62-1.51-1.62-1.51s-3.13-2.137-5.18-3.82c-1.18-.968-2.347-2.166-3.126-3.01l-2.005-.11c4.69 6.968 11.967 8.8 11.967 8.8.864-.14 3.275-1.86 5.074-3.26 1.8-1.404 4.75-4.524 5.938-5.892.6-.692.943-1.42 1.135-1.97-1.11.383-1.832.708-1.832.708M25.813 25.7s-3.79-1.44-5.182-1.823c-1.39-.384-2.254-.672-4.03.624-1.774 1.296-1.726 3.84-1.726 3.84s.43.96.48 1.44c.047.478-1.2.43-2.016.43s-.91-1.44-.288-3.118c.624-1.68 1.92-3.695 1.92-3.695C9.55 26.227 0 32.753 0 32.753s2.926-.287 8.156.24c5.23.528 4.942 4.654 4.942 4.654s3.503-.96 5.614-1.103 2.255 2.11 2.255 2.11l.528 3.84s.48-.624 2.64-2.352C25.986 38.66 28 38.786 28.5 38.847L25.813 25.7z"/><path class="st4" d="M89.56 37.12c-.664-.852-.995-2.08-.995-3.69v-5.336c0-1.644.328-2.886.985-3.726.656-.84 1.782-1.26 3.377-1.26 1.52 0 2.597.37 3.23 1.112.63.742.947 1.807.947 3.193v1.25H94.16v-1.378c0-.442-.022-.798-.064-1.068a1.197 1.197 0 0 0-.332-.672c-.178-.177-.45-.267-.82-.267-.55 0-.907.178-1.066.534-.16.356-.24.877-.24 1.565v6.772c0 .7.093 1.22.277 1.563.184.344.527.516 1.03.516.516 0 .847-.176.994-.526.146-.35.22-.868.22-1.555v-1.455h2.944v1.233c0 1.423-.313 2.525-.938 3.304-.626.78-1.706 1.168-3.24 1.168-1.582 0-2.704-.426-3.367-1.28M101.116 23.29h3.368l2.87 14.907h-2.796l-.553-3.276h-2.355l-.57 3.277h-2.853l2.89-14.907zm2.595 9.754l-.9-6-.884 6h1.785zM109.508 25.536h-2.3V23.29h7.618v2.246h-2.263v12.662h-3.055z"/><path class="st5" d="M120.808 23.29h5.778v1.547h-3.7v4.932h3v1.47h-3v5.467h3.737v1.49h-5.815zM128.298 23.29h1.417l4.232 9.902v-9.9h1.73v14.906h-1.325l-4.288-10.178v10.178h-1.766zM138.015 23.29h5.78v1.547h-3.7v4.932h3v1.47h-3v5.467h3.735v1.49h-5.815zM145.505 23.29h3c1.51 0 2.616.31 3.322.93.705.62 1.058 1.628 1.058 3.027 0 1.914-.613 3.073-1.84 3.478l2.116 7.472h-2.006l-1.95-6.993h-1.62v6.993h-2.08V23.29zm2.87 6.423c.897 0 1.538-.178 1.924-.534.385-.357.58-1 .58-1.933 0-.614-.07-1.095-.204-1.445a1.387 1.387 0 0 0-.717-.773c-.345-.166-.83-.25-1.455-.25h-.92v4.933h.79zM155.682 37.102c-.6-.853-.902-2.12-.902-3.8v-4.987c0-1.153.12-2.102.36-2.844.24-.74.65-1.31 1.232-1.71.582-.4 1.384-.598 2.402-.598 1.374 0 2.365.35 2.972 1.048.608.7.91 1.798.91 3.295v.552h-1.95v-.46c0-.71-.043-1.26-.128-1.647-.086-.387-.267-.678-.543-.874-.276-.196-.685-.295-1.224-.295-.576 0-1.005.133-1.287.397-.282.263-.464.616-.543 1.058-.08.44-.12 1.03-.12 1.767v5.52c0 1.142.138 1.96.414 2.458.277.497.807.745 1.592.745.773 0 1.304-.27 1.592-.81.288-.54.432-1.405.432-2.594v-1.03h-1.895v-1.472h3.772v7.38h-1.306l-.2-1.712c-.467 1.263-1.35 1.895-2.652 1.895-1.35 0-2.324-.424-2.926-1.278M167.074 32.934l-3.22-9.644h1.932l2.282 7.196 2.246-7.196h1.95l-3.202 9.644v5.263h-1.988z"/></svg>