<svg version="1.1" id="Слой_1" xmlns="http://www.w3.org/2000/svg" xmlns:xlink="http://www.w3.org/1999/xlink" x="0px" y="0px" width="201.99px" height="59.48px" xml:space="preserve" enable-background="new 0 0 201.99 59.48"><style type="text/css">.st0,.st1{clip-path:url(#SVGID_2_);fill:#fdc305}.st1{fill:#f06351}.st2{fill:#e55645}.st2,.st3,.st4,.st5{clip-path:url(#SVGID_2_)}.st4,.st5{fill:#111}.st5{fill:#444}</style><g><defs><rect id="SVGID_1_" y="0" width="201.99" height="59.48"/></defs><clipPath id="SVGID_2_"><use xlink:href="#SVGID_1_" overflow="visible"/></clipPath><path class="st0" d="M59.885,23.994c-5.453-13.049-20.451-19.209-33.5-13.756c-13.05,5.451-19.209,20.45-13.757,33.5
		c3.586,8.584,11.303,14.186,19.879,15.463c-0.58-2.09-1.163-4.4-1.692-6.855c1.499,0.991,3.089,1.805,4.77,2.555
		c-0.007,0.004-0.014,0.006-0.021,0.01c0,0,0.119,2.157,0.28,4.566c1.773,0.029,3.564-0.127,5.347-0.479
		c-0.043-0.157-0.043-0.405,0.011-0.761c0.287-1.863,1.093-5.237,1.249-7.408c1.129-1.064,2.138-2.326,2.9-3.713
		c-0.002,0.012-0.003,0.025-0.004,0.037c-0.018,0.143-0.036,0.288-0.055,0.433c-0.554,4.265-1.704,8.814-2.403,10.071
		c-0.243,0.438-0.546,0.859-0.83,1.154c1.368-0.321,2.729-0.757,4.068-1.317C59.177,52.042,65.336,37.044,59.885,23.994
		 M58.406,27.78c-0.434,0.434-1.349,0.723-1.494-0.578c-0.144-1.301-0.193-2.217-0.193-2.217s-1.927-3.421-2.65-3.47
		c-0.723-0.047-5.831,3.47-7.18,4.964c-1.165,1.289-1.398,1.205-1.398,3.47c0,1.713,0.221,8.166,0.099,13.108
		c0,0-2.171,0.578-8.146,2.168c-5.976,1.59-7.807,1.783-7.807,1.783l-1.012-5.831h-0.002c-0.006-0.001-0.019-0.004-0.04-0.007
		c-0.001,0-0.002,0-0.002-0.001c-0.01-0.001-0.022-0.003-0.035-0.005c-0.015-0.002-0.031-0.004-0.049-0.006l-2.57-13.185
		c0,0-3.808-1.446-5.205-1.831c-1.398-0.386-2.265-0.675-4.048,0.626c-1.783,1.302-1.735,3.855-1.735,3.855s0.434,0.964,0.482,1.446
		c0.048,0.482-1.205,0.434-2.024,0.434s-0.916-1.446-0.289-3.133c0.626-1.686,1.927-3.71,1.927-3.71s1.205-2.265,2.073-2.892
		c0,0,0.144-0.337,1.253-0.24c1.108,0.096,7.276,0.433,7.276,0.433l0.054-2.275c6.692-0.912,13.489-1.374,20.244-1.336
		c-0.01,0.608-0.029,1.218-0.058,1.828c0,0,4.385-2.024,8.144-1.976c0,0,0.434-0.048,0.771,0.386
		c0.337,0.434,2.409,2.988,2.651,3.373c0.24,0.386,1.204,1.735,1.831,3.036C59.274,25.997,58.84,27.346,58.406,27.78"/><path class="st1" d="M56.455 21.673c.474.598.887 1.129.987 1.289.241.385 1.205 1.734 1.831 3.036 0 0-.433 1.349-.867 1.782-.434.435-1.349.724-1.494-.578-.145-1.301-.193-2.216-.193-2.216s-1.928-3.422-2.65-3.47c-.723-.048-5.831 3.47-7.18 4.964-1.165 1.289-1.398 1.204-1.398 3.469 0 1.502.17 6.65.129 11.226 1.81.209 4.466.71 5.268 1.882 0 0-.289-7.18 7.807-3.422 0 0 .289-9.782 11.469-7.276C70.164 32.359 64.496 25.4 56.455 21.673M45.935 19.351c.146-8.514-1.407-16.532-1.407-16.532s-.145-1.301-.868-.241-1.204 3.951-1.204 3.951c-7.47-.433-12.819.338-12.819.338-.819-2.747-2.217-3.952-2.891-3.663-.675.289-.723 3.325-.723 3.325l-.332 14.158C32.383 19.775 39.181 19.313 45.935 19.351"/><path class="st2" d="M45.351,47.117c0.126-1.065,0.2-2.485,0.239-4.06c0,0-2.171,0.579-8.146,2.168
		c-5.976,1.59-7.807,1.784-7.807,1.784l1.109,5.011c0.022,0.11,0.046,0.218,0.069,0.326c1.499,0.992,3.089,1.805,4.77,2.555
		c4.372-2.164,6.87-4.134,6.87-4.134c-0.001,0.021-0.002,0.041-0.004,0.063C43.58,49.765,44.589,48.504,45.351,47.117"/><path class="st3" d="M31.998 16.215c-.046-.091 1.026.684 1.412.924.385.242.612.426.612.594 0 .169-.265.337-.627.337-.361 0-.915-.12-.963-.265 0 0 .602-.024.94-.024h.289C33.661 17.781 32.263 16.745 31.998 16.215M39.5 16.329c0 0-1.051 1.279-1.09 1.338-.039.059-.167.343.186.294.352-.049 1.115-.225 1.223-.284.107-.059.07-.197-.118-.176-.205.022-.685.049-.988.107l.844-1.265C39.557 16.343 39.584 16.224 39.5 16.329M36.356 22.444c0 0 .813-.353 1.093-1.012.281-.659.037-.916-.442-.982-.479-.066-1.346-.03-1.744.341-.398.37-.344.732-.054.957C35.498 21.974 36.058 22.354 36.356 22.444"/><path class="st1" d="M35.95,23.699c0,0-0.181,0.374-0.46,0.597c-0.245,0.194-0.57,0.364-1.022,0.388
		c-0.641,0.033-1.06-0.17-1.457-0.447c-0.204-0.142-0.397-0.256-0.535-0.444c-0.157-0.182-0.357-0.254-0.357-0.254
		s0.75,4.116,2.576,4.766c1.825,0.651,2.151-0.752,2.209-1.137c0.048-0.327,0-2.091-0.824-3.237
		C36.066,23.627,36.05,23.831,35.95,23.699"/><path class="st3" d="M34.302,24.837h-0.016c-1.297-0.011-2.3-1.366-2.342-1.424c-0.047-0.064-0.033-0.155,0.032-0.202
		c0.064-0.047,0.155-0.033,0.201,0.032c0.01,0.012,0.961,1.296,2.113,1.305h0.012c0.586,0,1.136-0.335,1.634-0.994l0.143-0.189
		l0.102,0.214c0.004,0.007,0.375,0.758,0.993,0.797c0.498,0.031,1.057-0.413,1.622-1.284c0.044-0.067,0.133-0.086,0.2-0.042
		c0.067,0.044,0.086,0.133,0.042,0.2c-0.635,0.978-1.269,1.453-1.884,1.414c-0.565-0.036-0.945-0.496-1.122-0.767
		C35.511,24.521,34.929,24.837,34.302,24.837"/><path class="st0" d="M32.795,35.993c-0.798-1.911,0.104-4.107,2.015-4.906c1.911-0.798,4.107,0.104,4.905,2.015
		c0.799,1.911-0.103,4.108-2.014,4.906S33.593,37.904,32.795,35.993"/><path class="st4" d="M41.233 31.504L38.1 32.813l1.15-5.636-7.502 9.762 3.134-1.308-1.15 5.635L41.233 31.504zM33.845 35.327l4.131-5.408-.806 4.019 1.967-.821-4.132 5.408.807-4.02L33.845 35.327zM31.4 33.175c-.239-.572.031-1.23.604-1.47.572-.238 1.23.032 1.469.604.24.573-.031 1.23-.603 1.47C32.297 34.018 31.639 33.748 31.4 33.175M38.226 37.441c-.169-.405.022-.87.427-1.039s.87.022 1.039.427c.169.404-.022.87-.427 1.039C38.86 38.037 38.395 37.845 38.226 37.441M39.601 35.532c-.074-.177.01-.38.187-.455.177-.074.381.01.455.187s-.01.381-.187.455C39.879 35.793 39.675 35.709 39.601 35.532"/><path class="st1" d="M45.876,21.16c0,0-2.554,2.254-5.084,5.212c-2.53,2.958-5.313,4.895-5.313,4.895
		c-0.217-0.528-1.626-1.514-1.626-1.514s-3.144-2.149-5.205-3.839c-1.184-0.971-2.355-2.175-3.138-3.024
		c-0.293-0.015-1.07-0.057-2.014-0.109c4.711,6.998,12.019,8.838,12.019,8.838c0.868-0.141,3.289-1.866,5.096-3.275
		c1.807-1.409,4.771-4.543,5.964-5.916c0.603-0.695,0.947-1.426,1.14-1.978C46.602,20.834,45.876,21.16,45.876,21.16"/><polygon class="st0" points="65.218,3.498 56.763,12.942 55.545,10.944 63.693,0 	"/><polygon class="st0" points="62.646,17.258 68.195,13.147 67.406,9.413 62.004,14.225 	"/><polygon class="st0" points="59.924,49.366 66.053,52.552 69.063,50.206 62.369,47.462 	"/><polygon class="st0" points="1.954,5.975 5.018,2.614 14.313,11.613 13.087,13.89 	"/><polygon class="st0" points="7.382,16.283 2.68,13.154 0.275,17.014 5.43,19.416 	"/><polygon class="st0" points="13.907,52.551 9.359,55.901 12.165,59.48 16.184,55.456 	"/><path class="st1" d="M25.926,27.973c0,0-3.807-1.446-5.205-1.831c-1.397-0.386-2.265-0.675-4.047,0.626
		c-1.784,1.302-1.735,3.855-1.735,3.855s0.433,0.964,0.482,1.446c0.047,0.482-1.205,0.434-2.024,0.434
		c-0.82,0-0.916-1.446-0.29-3.133c0.627-1.686,1.928-3.71,1.928-3.71C9.59,28.503,0,35.057,0,35.057s2.939-0.289,8.192,0.241
		s4.963,4.674,4.963,4.674s3.519-0.964,5.639-1.108c2.12-0.145,2.265,2.121,2.265,2.121l0.53,3.854c0,0,0.482-0.626,2.65-2.361
		c1.862-1.489,3.886-1.361,4.385-1.301c0,0,0.001,0,0,0L25.926,27.973z"/><path class="st4" d="M85.657 42.035c-.932-1.199-1.398-2.929-1.398-5.19v-7.507c0-2.312.462-4.06 1.385-5.242.924-1.182 2.507-1.773 4.751-1.773 2.139 0 3.654.522 4.543 1.566.888 1.044 1.333 2.542 1.333 4.491v1.76h-4.142v-1.941c0-.622-.031-1.122-.091-1.502-.061-.379-.215-.694-.466-.945-.249-.249-.634-.375-1.151-.375-.777 0-1.278.251-1.502.751-.224.501-.336 1.234-.336 2.2v9.526c0 .985.129 1.717.388 2.201.259.483.742.725 1.45.725.725 0 1.19-.246 1.398-.738.206-.492.31-1.221.31-2.188v-2.045h4.142v1.735c0 2.002-.44 3.552-1.32 4.646-.881 1.097-2.399 1.644-4.556 1.644C88.168 43.834 86.59 43.235 85.657 42.035M101.914 22.581h4.736l4.039 20.968h-3.935l-.776-4.608h-3.313l-.803 4.608h-4.013L101.914 22.581zM105.563 36.301l-1.268-8.439-1.242 8.439H105.563z"/><polygon class="st4" points="113.718,25.739 110.482,25.739 110.482,22.581 121.199,22.581 121.199,25.739 118.015,25.739 
		118.015,43.549 113.718,43.549 	"/><polygon class="st5" points="129.612,22.581 137.74,22.581 137.74,24.756 132.536,24.756 132.536,31.693 136.756,31.693 
		136.756,33.764 132.536,33.764 132.536,41.453 137.792,41.453 137.792,43.549 129.612,43.549 	"/><polygon class="st5" points="140.148,22.581 142.141,22.581 148.094,36.508 148.094,22.581 150.528,22.581 150.528,43.549 
		148.663,43.549 142.632,29.234 142.632,43.549 140.148,43.549 	"/><polygon class="st5" points="153.815,22.581 161.943,22.581 161.943,24.756 156.739,24.756 156.739,31.693 160.959,31.693 
		160.959,33.764 156.739,33.764 156.739,41.453 161.995,41.453 161.995,43.549 153.815,43.549 	"/><path class="st5" d="M164.352 22.581h4.22c2.123 0 3.679.436 4.672 1.307.992.872 1.488 2.291 1.488 4.258 0 2.692-.863 4.323-2.59 4.893l2.977 10.51h-2.821l-2.744-9.837h-2.278v9.837h-2.924V22.581zM168.39 31.615c1.26 0 2.161-.25 2.705-.751.543-.5.816-1.406.816-2.718 0-.863-.096-1.539-.286-2.031-.19-.493-.527-.855-1.008-1.088-.484-.233-1.166-.349-2.045-.349h-1.296v6.937H168.39zM178.666 42.008c-.845-1.199-1.269-2.98-1.269-5.345v-7.015c0-1.622.169-2.955.505-4 .337-1.043.914-1.846 1.736-2.407.818-.561 1.945-.841 3.378-.841 1.932 0 3.326.491 4.18 1.475.855.984 1.282 2.529 1.282 4.633v.777h-2.745v-.647c0-1-.06-1.773-.179-2.317-.122-.543-.377-.953-.765-1.229-.389-.276-.963-.415-1.722-.415-.81 0-1.416.186-1.811.558-.398.37-.653.866-.764 1.487-.113.621-.169 1.45-.169 2.486v7.766c0 1.604.195 2.757.582 3.456.39.698 1.136 1.048 2.24 1.048 1.086 0 1.834-.379 2.24-1.139.405-.759.608-1.977.608-3.649v-1.451h-2.666v-2.07h5.306v10.38h-1.837l-.286-2.407c-.656 1.777-1.899 2.666-3.728 2.666C180.885 43.808 179.513 43.208 178.666 42.008"/><polygon class="st5" points="194.689,36.146 190.16,22.582 192.877,22.582 196.087,32.703 199.247,22.582 201.99,22.582 
		197.485,36.146 197.485,43.55 194.689,43.55 	"/></g></svg>