<svg id="logo" xmlns="http://www.w3.org/2000/svg" width="191" height="38" viewBox="0 0 191 38"><style>.st0{fill:#fdc305}.st1{fill:#f06351}.st2{fill:#111}</style><path class="st0" d="M6.064 20.574l.1-2.286c6.66-.895 13.32-1.392 20.08-1.292 0 .596 0 1.193-.1 1.79 0 0 2.883-1.293 5.964-1.79C29.722 10.734 23.658 6.26 16.6 6.26 8.35 6.26 1.493 12.324.2 20.276c2.186.1 5.864.298 5.864.298zM27.038 24.054c-1.193 1.292-1.392 1.193-1.392 3.48v9.144c4.473-2.982 7.356-8.052 7.356-13.817 0-1.092-.1-2.086-.298-3.08-1.69 1.093-4.672 3.18-5.666 4.274zM6.362 25.545s-3.777-1.392-5.17-1.79L0 23.46c.2 5.964 3.678 11.233 8.648 13.917l-2.286-11.83z"/><path class="st1" d="M26.143 16.996C26.243 8.546 24.75.594 24.75.594s-.198-1.193-.894-.2c-.696 1.094-1.193 3.878-1.193 3.878-7.355-.397-12.723.298-12.723.298C9.145 1.986 7.853.793 7.157.992c-.696.298-.696 3.38-.696 3.38l-.396 14.016c6.66-.994 13.42-1.392 20.08-1.392z"/><path d="M12.326 13.914c0-.1.994.696 1.392.895s.596.397.596.595c0 .2-.298.298-.596.298s-.895-.1-.994-.298h1.192c.1.1-1.293-.994-1.59-1.49zM19.78 14.014s-.993 1.292-1.092 1.292c0 .1-.2.298.2.298.397 0 1.092-.2 1.192-.298.1-.1.1-.2-.1-.2-.198 0-.695 0-.993.1l.794-1.192s.1-.1 0 0zM16.7 20.077s.795-.398 1.093-.994c.298-.696 0-.895-.398-.994-.497-.1-1.292 0-1.69.297-.398.398-.298.696-.1.994.2.2.797.598 1.095.697z"/><path class="st1" d="M16.203 21.37s-.2.398-.497.596c-.2.2-.596.398-.994.398-.596 0-1.093-.2-1.49-.398-.2-.1-.4-.298-.498-.398-.2-.2-.398-.298-.398-.298s.696 4.076 2.584 4.672c1.79.596 2.087-.696 2.187-1.093 0-.3 0-2.088-.795-3.182.1-.398 0-.2-.1-.298z"/><path d="M14.612 22.463c-1.292 0-2.286-1.392-2.286-1.392v-.198h.2s.993 1.292 2.086 1.292c.596 0 1.093-.298 1.59-.994l.1-.2.098.2s.398.795.994.795c.497 0 1.093-.398 1.59-1.292 0-.1.1-.1.2 0 .098 0 .098.1 0 .2-.597.993-1.293 1.39-1.89 1.39-.596 0-.895-.496-1.093-.794-.395.695-.99.993-1.588.993z"/><path class="st1" d="M26.044 18.785s-2.485 2.187-5.07 5.17-5.17 4.87-5.17 4.87c-.198-.497-1.59-1.49-1.59-1.49s-3.08-2.088-5.168-3.778c-1.193-.994-2.286-2.187-3.082-2.982-.298 0-1.093-.1-1.988-.1 4.672 6.96 11.928 8.75 11.928 8.75.895-.1 3.28-1.89 5.07-3.28 1.79-1.393 4.77-4.474 5.865-5.866.595-.697.894-1.393 1.092-1.99-1.093.397-1.888.695-1.888.695z"/><g><path class="st2" d="M91.236 29.53C90.446 28.5 89.97 27 89.97 25.1V18.54c0-1.976.396-3.478 1.187-4.506.87-1.028 2.213-1.502 4.19-1.502 1.897 0 3.24.474 4.032 1.344s1.185 2.213 1.185 3.874v1.58H96.69v-1.818c0-.712-.078-1.265-.236-1.58s-.474-.634-1.107-.634c-.554 0-.95.158-1.107.554-.158.395-.237 1.028-.237 1.74v8.458c0 .712.08 1.265.316 1.66.157.395.553.554 1.106.554s.87-.158 1.028-.554c.158-.396.237-.95.237-1.66v-1.897h3.875v1.58c0 1.66-.395 3.005-1.186 3.954-.792.95-2.135 1.423-4.033 1.423-1.897-.08-3.32-.554-4.11-1.58zM105.23 12.77h4.505l3.32 18.022h-3.636l-.634-3.794h-2.608l-.633 3.794h-3.715l3.4-18.023zm3.24 11.857l-.95-7.035-.948 7.035h1.898zM115.822 15.773h-2.687V12.77h9.408v2.924h-2.687v15.1h-4.033v-15.02zM129.735 12.77h6.956v1.896h-4.505v5.93h3.636v1.817h-3.635v6.64h4.506v1.818h-7.034v-18.1h.08zM138.747 12.77h1.74l5.138 11.936V12.77h2.055V30.79h-1.58l-5.218-12.33v12.33h-2.134V12.77zM150.05 12.77h6.957v1.896H152.5v5.93h3.637v1.817H152.5v6.64h4.507v1.818h-6.956v-18.1zM159.063 12.77h3.636c1.817 0 3.16.394 4.03 1.106.87.712 1.266 1.976 1.266 3.636 0 2.292-.712 3.715-2.213 4.19l2.53 9.012h-2.45l-2.372-8.46h-1.975v8.46h-2.53V12.77h.078zm3.48 7.747c1.106 0 1.817-.237 2.29-.633.475-.395.713-1.186.713-2.37 0-.713-.08-1.345-.237-1.74-.16-.395-.475-.712-.87-.95-.396-.236-1.03-.315-1.74-.315h-1.107v5.928h.95v.08zM171.158 29.45c-.712-1.028-1.107-2.53-1.107-4.585v-6.008c0-1.423.16-2.53.396-3.4.316-.87.79-1.58 1.502-2.054.712-.474 1.66-.712 2.925-.712 1.66 0 2.846.396 3.557 1.266.712.87 1.107 2.134 1.107 3.953v.632h-2.37v-.554c0-.87-.08-1.502-.16-1.976a1.544 1.544 0 0 0-.632-1.028c-.317-.237-.79-.395-1.502-.395s-1.186.157-1.58.473-.555.712-.634 1.265c-.08.554-.16 1.265-.16 2.134v6.72c0 1.343.16 2.37.475 3.003.316.633.95.87 1.897.87s1.58-.316 1.897-.95.553-1.66.553-3.16v-1.266h-2.292v-1.82h4.586v8.933h-1.58l-.238-2.055c-.554 1.502-1.66 2.292-3.24 2.292-1.502 0-2.688-.553-3.4-1.58zM184.676 24.47l-3.874-11.622h2.37l2.768 8.696 2.687-8.696H191l-3.874 11.62v6.325h-2.37V24.47h-.08z"/></g></svg>